<mxfile host="app.diagrams.net" modified="2023-10-19T05:04:20.417Z" agent="Mozilla/5.0 (Windows NT 10.0; Win64; x64) AppleWebKit/537.36 (KHTML, like Gecko) Chrome/118.0.0.0 Safari/537.36" version="22.0.4" etag="Ss_JDV3tJ5U4vTV-F9V1" type="github">
  <diagram name="페이지-1" id="HYjw_TpP1-gARWNgNGUQ">
    <mxGraphModel>
      <root>
        <mxCell id="0" />
        <mxCell id="1" parent="0" />
      </root>
    </mxGraphModel>
  </diagram>
</mxfile>
